<svg width="1909" height="514" viewBox="0 0 1909 514" fill="none" xmlns="http://www.w3.org/2000/svg">
<circle cx="171.612" cy="239.786" r="152.933" stroke="#FE5A5F" stroke-width="36"/>
<circle cx="313.19" cy="171.919" r="152.933" stroke="#FE5A5F" stroke-width="36"/>
<circle cx="313.19" cy="342.852" r="152.933" stroke="#FE5A5F" stroke-width="36"/>
<path d="M616.798 343.719V146.434H656.72V222.449H657.54C661.368 213.335 667.065 206.362 674.63 201.531C682.286 196.61 691.583 194.149 702.521 194.149C713.185 194.149 722.345 196.518 730.001 201.258C737.657 205.906 743.536 212.515 747.638 221.082C751.83 229.65 753.927 239.858 753.927 251.707V343.719H714.005V259.91C714.005 249.702 711.544 241.727 706.622 235.985C701.791 230.151 694.819 227.235 685.704 227.235C679.871 227.235 674.767 228.647 670.392 231.473C666.108 234.207 662.735 238.035 660.274 242.957C657.905 247.788 656.72 253.393 656.72 259.774V343.719H616.798Z" fill="#FE5A5F"/>
<path d="M852.496 346.727C837.639 346.727 824.787 343.673 813.941 337.567C803.094 331.46 794.709 322.71 788.785 311.317C782.86 299.923 779.898 286.297 779.898 270.438V270.164C779.898 254.396 782.906 240.861 788.921 229.559C794.937 218.166 803.368 209.416 814.214 203.309C825.061 197.202 837.775 194.149 852.359 194.149C867.033 194.149 879.794 197.202 890.64 203.309C901.578 209.324 910.054 218.029 916.07 229.422C922.085 240.724 925.093 254.305 925.093 270.164V270.438C925.093 286.388 922.085 300.06 916.07 311.453C910.145 322.847 901.76 331.597 890.913 337.703C880.067 343.719 867.261 346.727 852.496 346.727ZM852.632 315.418C859.104 315.418 864.709 313.686 869.449 310.223C874.279 306.668 877.971 301.564 880.523 294.91C883.166 288.166 884.488 280.008 884.488 270.438V270.164C884.488 260.685 883.166 252.619 880.523 245.965C877.88 239.311 874.143 234.253 869.312 230.789C864.481 227.235 858.83 225.457 852.359 225.457C845.979 225.457 840.373 227.235 835.542 230.789C830.803 234.253 827.111 239.311 824.468 245.965C821.825 252.619 820.503 260.685 820.503 270.164V270.438C820.503 280.008 821.779 288.166 824.331 294.91C826.975 301.564 830.712 306.668 835.542 310.223C840.373 313.686 846.07 315.418 852.632 315.418Z" fill="#FE5A5F"/>
<path d="M951.338 343.719V197.156H991.26V221.766H992.08C995.088 213.38 1000.19 206.681 1007.39 201.668C1014.68 196.655 1023.25 194.149 1033.1 194.149C1039.93 194.149 1046.08 195.334 1051.55 197.703C1057.02 200.073 1061.62 203.491 1065.36 207.957C1069.19 212.423 1071.88 217.892 1073.43 224.364H1074.25C1076.44 218.166 1079.72 212.834 1084.09 208.367C1088.56 203.81 1093.8 200.301 1099.81 197.84C1105.92 195.379 1112.57 194.149 1119.78 194.149C1129.35 194.149 1137.73 196.199 1144.93 200.301C1152.13 204.403 1157.74 210.145 1161.75 217.528C1165.76 224.91 1167.76 233.569 1167.76 243.504V343.719H1127.84V253.485C1127.84 247.834 1126.88 243.048 1124.97 239.129C1123.15 235.21 1120.46 232.248 1116.9 230.242C1113.44 228.237 1109.11 227.235 1103.92 227.235C1098.9 227.235 1094.48 228.374 1090.65 230.653C1086.92 232.931 1084 236.121 1081.9 240.223C1079.81 244.324 1078.76 249.11 1078.76 254.578V343.719H1040.34V252.254C1040.34 246.968 1039.38 242.456 1037.47 238.719C1035.56 234.982 1032.82 232.156 1029.27 230.242C1025.8 228.237 1021.61 227.235 1016.69 227.235C1011.68 227.235 1007.26 228.42 1003.43 230.789C999.599 233.159 996.592 236.44 994.404 240.633C992.308 244.826 991.26 249.702 991.26 255.262V343.719H951.338Z" fill="#FE5A5F"/>
<path d="M1265.38 346.727C1250.43 346.727 1237.58 343.673 1226.82 337.567C1216.07 331.369 1207.77 322.573 1201.94 311.18C1196.2 299.787 1193.32 286.297 1193.32 270.711V270.574C1193.32 254.989 1196.2 241.499 1201.94 230.106C1207.77 218.621 1215.93 209.78 1226.41 203.582C1236.98 197.293 1249.42 194.149 1263.73 194.149C1278.04 194.149 1290.39 197.202 1300.79 203.309C1311.27 209.324 1319.33 217.847 1324.98 228.875C1330.73 239.904 1333.6 252.801 1333.6 267.567V279.871H1212.88V254.715H1314.73L1295.73 278.231V262.918C1295.73 254.351 1294.41 247.196 1291.76 241.453C1289.12 235.62 1285.43 231.245 1280.69 228.328C1276.04 225.412 1270.62 223.953 1264.42 223.953C1258.22 223.953 1252.71 225.457 1247.88 228.465C1243.14 231.473 1239.4 235.893 1236.66 241.727C1234.02 247.469 1232.7 254.533 1232.7 262.918V278.367C1232.7 286.479 1234.02 293.406 1236.66 299.149C1239.4 304.891 1243.27 309.311 1248.29 312.41C1253.3 315.418 1259.27 316.922 1266.2 316.922C1271.66 316.922 1276.4 316.056 1280.41 314.324C1284.42 312.593 1287.71 310.405 1290.26 307.762C1292.81 305.119 1294.54 302.43 1295.45 299.696L1295.73 298.875H1332.37L1331.96 300.379C1330.86 305.757 1328.72 311.18 1325.53 316.649C1322.34 322.117 1318.01 327.13 1312.54 331.688C1307.17 336.245 1300.56 339.891 1292.72 342.625C1284.97 345.36 1275.86 346.727 1265.38 346.727Z" fill="#FE5A5F"/>
<path d="M1420.14 346.727C1406.65 346.727 1395.16 344.767 1385.68 340.848C1376.2 336.929 1368.77 331.505 1363.4 324.578C1358.11 317.56 1354.92 309.448 1353.83 300.242L1353.69 299.012H1392.65L1392.93 300.242C1394.2 305.985 1397.08 310.451 1401.54 313.641C1406.01 316.831 1412.21 318.426 1420.14 318.426C1425.24 318.426 1429.57 317.834 1433.12 316.649C1436.68 315.373 1439.41 313.595 1441.33 311.317C1443.33 309.038 1444.33 306.304 1444.33 303.114V302.977C1444.33 299.058 1442.92 295.913 1440.1 293.543C1437.27 291.173 1432.26 289.168 1425.06 287.528L1400.17 282.332C1390.7 280.327 1382.77 277.456 1376.39 273.719C1370.1 269.891 1365.36 265.197 1362.17 259.637C1358.98 253.986 1357.38 247.515 1357.38 240.223V240.086C1357.38 230.698 1359.89 222.586 1364.9 215.75C1369.91 208.914 1377.02 203.628 1386.23 199.891C1395.53 196.063 1406.37 194.149 1418.77 194.149C1431.71 194.149 1442.69 196.245 1451.72 200.438C1460.83 204.539 1467.8 210.099 1472.64 217.117C1477.56 224.136 1480.15 231.929 1480.43 240.496V241.864H1443.65L1443.51 240.77C1442.88 235.483 1440.42 231.108 1436.13 227.645C1431.94 224.09 1426.15 222.313 1418.77 222.313C1414.21 222.313 1410.25 222.951 1406.87 224.227C1403.5 225.503 1400.9 227.326 1399.08 229.696C1397.26 231.974 1396.35 234.709 1396.35 237.899V238.035C1396.35 240.496 1396.94 242.729 1398.12 244.735C1399.4 246.649 1401.5 248.335 1404.41 249.793C1407.33 251.252 1411.25 252.528 1416.17 253.621L1441.05 258.953C1456.46 262.143 1467.49 266.929 1474.14 273.309C1480.88 279.689 1484.26 288.257 1484.26 299.012V299.149C1484.26 308.719 1481.52 317.059 1476.05 324.168C1470.58 331.278 1463.02 336.837 1453.36 340.848C1443.79 344.767 1432.71 346.727 1420.14 346.727Z" fill="#FE5A5F"/>
<path d="M1567.79 346.727C1551.56 346.727 1539.53 343.309 1531.69 336.473C1523.85 329.637 1519.93 318.38 1519.93 302.703V227.235H1499.56V197.156H1519.93V161.336H1560.27V197.156H1587.06V227.235H1560.27V298.328C1560.27 305.164 1561.77 309.949 1564.78 312.684C1567.88 315.327 1572.43 316.649 1578.45 316.649C1580.27 316.649 1581.87 316.603 1583.24 316.512C1584.6 316.33 1585.88 316.147 1587.06 315.965V345.223C1584.88 345.587 1582.14 345.906 1578.86 346.18C1575.67 346.545 1571.98 346.727 1567.79 346.727Z" fill="#FE5A5F"/>
<path d="M1656.92 346.043C1647.17 346.043 1638.6 344.175 1631.22 340.438C1623.84 336.61 1618.05 331.369 1613.85 324.715C1609.75 317.97 1607.7 310.314 1607.7 301.746V301.473C1607.7 292.541 1609.94 284.93 1614.4 278.641C1618.87 272.261 1625.34 267.248 1633.82 263.602C1642.29 259.956 1652.59 257.723 1664.71 256.903L1721.86 253.348V278.231L1670.73 281.512C1663.07 281.968 1657.24 283.791 1653.23 286.981C1649.22 290.08 1647.21 294.227 1647.21 299.422V299.696C1647.21 305.073 1649.27 309.311 1653.37 312.41C1657.47 315.418 1662.98 316.922 1669.91 316.922C1675.83 316.922 1681.12 315.783 1685.77 313.504C1690.51 311.134 1694.2 307.944 1696.84 303.934C1699.58 299.832 1700.94 295.229 1700.94 290.125V245.692C1700.94 239.22 1698.89 234.116 1694.79 230.379C1690.69 226.551 1684.72 224.637 1676.88 224.637C1669.41 224.637 1663.48 226.186 1659.11 229.285C1654.73 232.384 1652.04 236.304 1651.04 241.043L1650.77 242.274H1614.27L1614.4 240.633C1615.13 231.61 1618.09 223.589 1623.29 216.571C1628.57 209.552 1635.87 204.084 1645.16 200.164C1654.55 196.154 1665.67 194.149 1678.52 194.149C1691.19 194.149 1702.18 196.199 1711.47 200.301C1720.77 204.311 1727.97 210.008 1733.07 217.391C1738.27 224.774 1740.87 233.387 1740.87 243.231V343.719H1700.94V321.844H1700.12C1697.39 326.857 1693.84 331.186 1689.46 334.832C1685.18 338.387 1680.3 341.167 1674.83 343.172C1669.36 345.086 1663.39 346.043 1656.92 346.043Z" fill="#FE5A5F"/>
<path d="M1794.45 391.981C1790.54 391.981 1786.75 391.798 1783.11 391.434C1779.46 391.069 1776.45 390.659 1774.08 390.203V360.535C1775.54 360.809 1777.41 361.082 1779.69 361.356C1781.97 361.72 1784.57 361.903 1787.48 361.903C1793.5 361.903 1798.24 360.9 1801.7 358.895C1805.16 356.89 1807.76 353.426 1809.49 348.504L1811.27 343.719L1759.45 197.156H1803.34L1836.43 319.656L1831.1 311.727H1838.61L1833.28 319.656L1866.37 197.156H1908.48L1858.17 346.317C1854.34 357.801 1849.51 366.87 1843.67 373.524C1837.93 380.177 1831 384.917 1822.89 387.742C1814.78 390.568 1805.3 391.981 1794.45 391.981Z" fill="#FE5A5F"/>
</svg>
