<svg width="1782" height="514" viewBox="0 0 1782 514" fill="none" xmlns="http://www.w3.org/2000/svg">
<circle cx="171.439" cy="239.027" r="160.933" stroke="#FE5A5F" stroke-width="20"/>
<circle cx="313.017" cy="171.16" r="160.933" stroke="#FE5A5F" stroke-width="20"/>
<circle cx="313.017" cy="342.094" r="160.933" stroke="#FE5A5F" stroke-width="20"/>
<path d="M602.679 336.627V139.342H632.347V216.451H633.031C636.768 208.066 642.419 201.594 649.984 197.037C657.64 192.389 666.846 190.064 677.601 190.064C687.9 190.064 696.833 192.48 704.398 197.311C712.054 202.05 717.979 208.749 722.171 217.408C726.455 226.067 728.597 236.184 728.597 247.76V336.627H698.929V253.365C698.929 241.425 696.058 232.128 690.316 225.475C684.574 218.821 676.507 215.494 666.117 215.494C659.372 215.494 653.447 217.089 648.343 220.279C643.33 223.469 639.411 227.89 636.585 233.541C633.76 239.192 632.347 245.8 632.347 253.365V336.627H602.679Z" fill="#FE5A5F"/>
<path d="M819.105 339.498C805.342 339.498 793.311 336.49 783.011 330.475C772.803 324.368 764.873 315.755 759.222 304.635C753.571 293.424 750.745 280.117 750.745 264.713V264.439C750.745 249.127 753.571 235.911 759.222 224.791C764.964 213.671 772.939 205.104 783.148 199.088C793.447 193.072 805.387 190.064 818.968 190.064C832.64 190.064 844.58 193.072 854.788 199.088C865.088 205.012 873.063 213.535 878.714 224.654C884.456 235.774 887.328 249.036 887.328 264.439V264.713C887.328 280.208 884.456 293.515 878.714 304.635C873.063 315.755 865.134 324.368 854.925 330.475C844.717 336.49 832.777 339.498 819.105 339.498ZM819.242 314.615C826.898 314.615 833.551 312.656 839.203 308.736C844.854 304.817 849.229 299.166 852.328 291.783C855.426 284.309 856.976 275.286 856.976 264.713V264.439C856.976 253.958 855.426 245.025 852.328 237.643C849.229 230.169 844.808 224.518 839.066 220.689C833.324 216.77 826.624 214.811 818.968 214.811C811.403 214.811 804.749 216.77 799.007 220.689C793.356 224.609 788.936 230.26 785.745 237.643C782.555 245.025 780.96 253.958 780.96 264.439V264.713C780.96 275.286 782.51 284.309 785.609 291.783C788.799 299.166 793.265 304.817 799.007 308.736C804.749 312.656 811.494 314.615 819.242 314.615Z" fill="#FE5A5F"/>
<path d="M910.16 336.627V192.799H939.964V215.084H940.511C943.61 207.519 948.669 201.458 955.687 196.9C962.705 192.343 970.908 190.064 980.296 190.064C986.859 190.064 992.783 191.158 998.07 193.346C1003.45 195.533 1008.05 198.769 1011.88 203.053C1015.71 207.245 1018.53 212.35 1020.35 218.365H1021.04C1023.5 212.532 1026.92 207.519 1031.29 203.326C1035.76 199.042 1040.91 195.761 1046.74 193.482C1052.67 191.204 1059.05 190.064 1065.88 190.064C1075.36 190.064 1083.61 192.07 1090.63 196.08C1097.65 199.999 1103.12 205.514 1107.03 212.623C1110.95 219.732 1112.91 228.072 1112.91 237.643V336.627H1083.11V244.889C1083.11 238.6 1082.02 233.268 1079.83 228.893C1077.73 224.518 1074.63 221.191 1070.53 218.912C1066.52 216.633 1061.55 215.494 1055.63 215.494C1049.79 215.494 1044.65 216.816 1040.18 219.459C1035.8 222.102 1032.34 225.794 1029.79 230.533C1027.33 235.273 1026.1 240.65 1026.1 246.666V336.627H996.976V242.701C996.976 237.141 995.837 232.356 993.558 228.346C991.37 224.244 988.272 221.1 984.261 218.912C980.251 216.633 975.42 215.494 969.769 215.494C964.027 215.494 958.877 216.907 954.32 219.732C949.854 222.467 946.344 226.249 943.792 231.08C941.24 235.911 939.964 241.471 939.964 247.76V336.627H910.16Z" fill="#FE5A5F"/>
<path d="M1202.74 339.498C1188.7 339.498 1176.58 336.49 1166.37 330.475C1156.25 324.368 1148.46 315.755 1142.99 304.635C1137.61 293.424 1134.93 280.253 1134.93 265.123V264.986C1134.93 250.038 1137.66 236.959 1143.13 225.748C1148.6 214.446 1156.3 205.696 1166.23 199.498C1176.17 193.209 1187.84 190.064 1201.23 190.064C1214.72 190.064 1226.3 193.072 1235.96 199.088C1245.71 205.012 1253.23 213.443 1258.52 224.381C1263.81 235.227 1266.45 247.851 1266.45 262.252V272.232H1149.55V251.314H1252.09L1237.46 270.865V259.381C1237.46 249.264 1235.91 240.878 1232.82 234.225C1229.81 227.48 1225.57 222.467 1220.1 219.186C1214.72 215.904 1208.48 214.264 1201.37 214.264C1194.35 214.264 1188.06 215.995 1182.5 219.459C1176.94 222.923 1172.57 228.027 1169.38 234.771C1166.19 241.425 1164.59 249.628 1164.59 259.381V270.865C1164.59 280.162 1166.14 288.137 1169.24 294.791C1172.43 301.354 1176.94 306.412 1182.78 309.967C1188.61 313.43 1195.49 315.162 1203.42 315.162C1209.25 315.162 1214.4 314.296 1218.87 312.564C1223.34 310.742 1227.03 308.372 1229.94 305.455C1232.95 302.447 1235.05 299.12 1236.23 295.475L1236.64 294.381H1264.81L1264.53 295.885C1263.35 301.536 1261.12 306.959 1257.84 312.154C1254.55 317.35 1250.27 322.044 1244.98 326.236C1239.79 330.338 1233.64 333.574 1226.53 335.943C1219.42 338.313 1211.49 339.498 1202.74 339.498Z" fill="#FE5A5F"/>
<path d="M1343.28 339.498C1331.25 339.498 1320.91 337.675 1312.25 334.029C1303.68 330.292 1296.94 325.143 1292.02 318.58C1287.09 311.926 1284.13 304.225 1283.13 295.475L1282.99 294.244H1312.25L1312.52 295.611C1313.98 302.174 1317.22 307.324 1322.23 311.061C1327.24 314.706 1334.26 316.529 1343.28 316.529C1349.3 316.529 1354.4 315.8 1358.6 314.342C1362.79 312.792 1366.03 310.605 1368.3 307.779C1370.58 304.954 1371.72 301.581 1371.72 297.662V297.525C1371.72 292.877 1370.22 289.14 1367.21 286.314C1364.2 283.489 1358.82 281.119 1351.08 279.205L1327.56 273.873C1318.45 271.777 1310.84 268.906 1304.73 265.26C1298.71 261.614 1294.2 257.148 1291.19 251.861C1288.19 246.575 1286.68 240.468 1286.68 233.541V233.404C1286.68 224.745 1289.01 217.18 1293.66 210.709C1298.3 204.146 1304.82 199.088 1313.21 195.533C1321.59 191.887 1331.3 190.064 1342.33 190.064C1353.63 190.064 1363.38 191.979 1371.59 195.807C1379.79 199.635 1386.17 204.876 1390.73 211.529C1395.37 218.092 1397.93 225.429 1398.38 233.541V235.182H1370.63L1370.49 234.225C1369.67 227.936 1366.85 222.831 1362.02 218.912C1357.18 214.902 1350.62 212.896 1342.33 212.896C1337.04 212.896 1332.44 213.671 1328.52 215.221C1324.6 216.77 1321.59 219.003 1319.5 221.92C1317.4 224.745 1316.35 228.072 1316.35 231.9V232.037C1316.35 234.954 1317.03 237.597 1318.4 239.967C1319.86 242.337 1322.18 244.387 1325.37 246.119C1328.56 247.851 1332.67 249.309 1337.68 250.494L1361.19 255.963C1375.87 259.335 1386.26 264.12 1392.37 270.318C1398.56 276.425 1401.66 284.674 1401.66 295.064V295.201C1401.66 303.951 1399.16 311.653 1394.14 318.307C1389.13 324.96 1382.2 330.156 1373.36 333.893C1364.61 337.63 1354.59 339.498 1343.28 339.498Z" fill="#FE5A5F"/>
<path d="M1475.22 339.498C1461 339.498 1450.38 336.308 1443.36 329.928C1436.44 323.456 1432.97 313.02 1432.97 298.619V216.314H1412.33V192.799H1432.97V155.338H1463.32V192.799H1490.26V216.314H1463.32V296.979C1463.32 304.27 1464.92 309.283 1468.11 312.018C1471.3 314.661 1476.04 315.982 1482.33 315.982C1483.88 315.982 1485.29 315.937 1486.57 315.846C1487.93 315.663 1489.16 315.527 1490.26 315.436V338.268C1488.53 338.541 1486.34 338.814 1483.69 339.088C1481.05 339.361 1478.23 339.498 1475.22 339.498Z" fill="#FE5A5F"/>
<path d="M1554.65 339.225C1545.08 339.225 1536.7 337.402 1529.5 333.756C1522.29 330.11 1516.69 325.006 1512.68 318.443C1508.67 311.881 1506.66 304.316 1506.66 295.748V295.475C1506.66 287.089 1508.76 279.889 1512.95 273.873C1517.15 267.766 1523.21 262.936 1531.14 259.381C1539.16 255.826 1548.82 253.73 1560.12 253.092L1614.53 249.811V270.592L1564.09 273.736C1555.24 274.283 1548.41 276.425 1543.58 280.162C1538.84 283.808 1536.47 288.684 1536.47 294.791V295.064C1536.47 301.354 1538.84 306.321 1543.58 309.967C1548.41 313.613 1554.79 315.436 1562.72 315.436C1569.65 315.436 1575.84 314.023 1581.31 311.197C1586.87 308.372 1591.25 304.498 1594.44 299.576C1597.63 294.563 1599.22 288.958 1599.22 282.76V239.967C1599.22 232.037 1596.76 225.839 1591.84 221.373C1586.92 216.816 1579.85 214.537 1570.65 214.537C1562.17 214.537 1555.34 216.36 1550.14 220.006C1545.04 223.652 1541.85 228.346 1540.57 234.088L1540.3 235.318H1512.41L1512.54 233.814C1513.27 225.52 1516.05 218.092 1520.88 211.529C1525.71 204.876 1532.41 199.635 1540.98 195.807C1549.55 191.979 1559.71 190.064 1571.47 190.064C1583.23 190.064 1593.39 192.024 1601.96 195.943C1610.52 199.863 1617.18 205.377 1621.92 212.486C1626.66 219.596 1629.03 227.936 1629.03 237.506V336.627H1599.22V313.932H1598.68C1595.85 319.127 1592.2 323.639 1587.74 327.467C1583.27 331.204 1578.21 334.12 1572.56 336.217C1567 338.222 1561.03 339.225 1554.65 339.225Z" fill="#FE5A5F"/>
<path d="M1674.28 384.615C1671.46 384.615 1668.63 384.479 1665.8 384.205C1662.98 383.932 1660.65 383.613 1658.83 383.248V360.143C1659.93 360.325 1661.29 360.507 1662.93 360.689C1664.66 360.963 1666.53 361.1 1668.54 361.1C1675.56 361.1 1681.12 359.915 1685.22 357.545C1689.41 355.175 1692.69 350.527 1695.06 343.6L1697.52 336.764L1645.16 192.799H1677.29L1715.43 316.256L1710.24 309.83H1717.48L1712.29 316.256L1750.57 192.799H1781.88L1728.28 343.189C1724.73 353.124 1720.54 361.145 1715.71 367.252C1710.97 373.359 1705.22 377.779 1698.48 380.514C1691.83 383.248 1683.76 384.615 1674.28 384.615Z" fill="#FE5A5F"/>
</svg>
